<?xml version="1.0" standalone="no"?><!DOCTYPE svg PUBLIC "-//W3C//DTD SVG 1.1//EN" "http://www.w3.org/Graphics/SVG/1.1/DTD/svg11.dtd"><svg t="1760688307344" class="icon" viewBox="0 0 1024 1024" version="1.1" xmlns="http://www.w3.org/2000/svg" p-id="2332" width="128" height="128" xmlns:xlink="http://www.w3.org/1999/xlink"><path d="M706.206897 1024H141.241379c-19.502345 0-35.310345-15.808-35.310345-35.310345v-211.862069c0-19.502345 15.808-35.310345 35.310345-35.310345h564.965518c19.502345 0 35.310345 15.808 35.310344 35.310345v211.862069c0 19.502345-15.808 35.310345-35.310344 35.310345z" fill="#5AAAE7" p-id="2333"></path><path d="M741.517241 776.827586v211.862069c0 19.42069-15.889655 35.310345-35.310344 35.310345H141.241379c-19.42069 0-35.310345-15.889655-35.310345-35.310345v-17.655172h547.310345c19.42069 0 35.310345-15.889655 35.310345-35.310345v-194.206897h17.655173c19.42069 0 35.310345 15.889655 35.310344 35.310345z" fill="#1E81CE" p-id="2334"></path><path d="M441.37931 529.655172v35.310345c0 19.502345-15.808 35.310345-35.310344 35.310345h-17.655173c-19.502345 0-35.310345 15.808-35.310345 35.310345s15.808 35.310345 35.310345 35.310345h247.172414c19.502345 0 35.310345-15.808 35.310345-35.310345s-15.808-35.310345-35.310345-35.310345h-17.655173c-19.502345 0-35.310345-15.808-35.310344-35.310345v-35.310345h-141.24138z" fill="#D4C8B8" p-id="2335"></path><path d="M176.551724 812.137931h35.310345v35.310345H176.551724zM247.172414 812.137931h35.310345v35.310345h-35.310345zM317.793103 812.137931h35.310345v35.310345h-35.310345zM388.413793 812.137931h35.310345v35.310345h-35.310345zM459.034483 812.137931h35.310345v35.310345h-35.310345zM529.655172 812.137931h35.310345v35.310345h-35.310345zM600.275862 812.137931h35.310345v35.310345h-35.310345zM670.896552 812.137931h35.310345v35.310345h-35.310345zM176.551724 882.758621h35.310345v35.310345H176.551724zM247.172414 882.758621h35.310345v35.310345h-35.310345zM317.793103 882.758621h35.310345v35.310345h-35.310345zM388.413793 882.758621h35.310345v35.310345h-35.310345zM459.034483 882.758621h35.310345v35.310345h-35.310345zM529.655172 882.758621h35.310345v35.310345h-35.310345zM600.275862 882.758621h35.310345v35.310345h-35.310345zM600.275862 953.37931h105.931035v35.310345h-105.931035zM670.896552 882.758621h35.310345v35.310345h-35.310345zM176.551724 953.37931h388.413793v35.310345H176.551724zM882.758621 935.724138h-35.310345V706.206897c0-29.206069 23.759448-52.965517 52.965517-52.965518 9.741241 0 17.655172-7.922759 17.655173-17.655172s-7.913931-17.655172-17.655173-17.655173h-176.551724v-35.310344h176.551724c29.206069 0 52.965517 23.759448 52.965517 52.965517s-23.759448 52.965517-52.965517 52.965517c-9.741241 0-17.655172 7.922759-17.655172 17.655173v229.517241zM176.551724 741.517241H141.241379v-35.310344c0-9.732414-7.913931-17.655172-17.655172-17.655173-29.206069 0-52.965517-23.759448-52.965517-52.965517s23.759448-52.965517 52.965517-52.965517h176.551724v35.310344H123.586207c-9.741241 0-17.655172 7.922759-17.655173 17.655173s7.913931 17.655172 17.655173 17.655172c29.206069 0 52.965517 23.759448 52.965517 52.965518v35.310344z" fill="#FFD422" p-id="2336"></path><path d="M88.275862 494.344828c0 19.500138 15.810207 35.310345 35.310345 35.310344h776.827586c19.500138 0 35.310345-15.810207 35.310345-35.310344v-35.310345H88.275862v35.310345z" fill="#EBE5DD" p-id="2337"></path><path d="M900.413793 0H123.586207c-19.500138 0-35.310345 15.808-35.310345 35.310345v423.724138h847.448276V35.310345c0-19.502345-15.810207-35.310345-35.310345-35.310345zM812.137931 988.689655c0 19.500138 15.810207 35.310345 35.310345 35.310345h35.310345c19.500138 0 35.310345-15.810207 35.310345-35.310345v-52.965517h-105.931035v52.965517z" fill="#5AAAE7" p-id="2338"></path><path d="M882.758621 865.103448h-35.310345c-19.500138 0-35.310345 15.808-35.310345 35.310345v35.310345h105.931035v-35.310345c0-19.502345-15.810207-35.310345-35.310345-35.310345z" fill="#FFD422" p-id="2339"></path><path d="M918.068966 935.724138v52.965517c0 19.42069-15.889655 35.310345-35.310345 35.310345h-35.310345c-19.42069 0-35.310345-15.889655-35.310345-35.310345h35.310345c19.42069 0 35.310345-15.889655 35.310345-35.310345v-17.655172h35.310345z" fill="#1E81CE" p-id="2340"></path><path d="M918.068966 900.413793v35.310345h-35.310345v-70.62069c19.42069 0 35.310345 15.889655 35.310345 35.310345z" fill="#E7B900" p-id="2341"></path><path d="M900.413793 0h-35.310345v459.034483h70.62069V35.310345c0-19.502345-15.808-35.310345-35.310345-35.310345z" fill="#1E81CE" p-id="2342"></path><path d="M882.758621 211.862069h-35.310345V105.931034c0-9.732414-7.913931-17.655172-17.655173-17.655172h-52.965517V52.965517h52.965517c29.206069 0 52.965517 23.759448 52.965518 52.965517v105.931035zM847.448276 247.172414h35.310345v35.310345h-35.310345z" fill="#FFFFFF" p-id="2343"></path><path d="M900.413793 529.655172h-35.310345v-70.620689h70.62069v35.310345c0 19.502345-15.808 35.310345-35.310345 35.310344z" fill="#D4C8B8" p-id="2344"></path><path d="M88.275862 423.724138h776.827586v35.310345H88.275862z" fill="#1E81CE" p-id="2345"></path></svg>