<?xml version="1.0" standalone="no"?><!DOCTYPE svg PUBLIC "-//W3C//DTD SVG 1.1//EN" "http://www.w3.org/Graphics/SVG/1.1/DTD/svg11.dtd"><svg t="1760688263455" class="icon" viewBox="0 0 1024 1024" version="1.1" xmlns="http://www.w3.org/2000/svg" p-id="2060" width="128" height="128" xmlns:xlink="http://www.w3.org/1999/xlink"><path d="M895.053258 392.130851l-175.486787 175.486787L456.338484 304.385263l175.486787-175.486787z" fill="#FFD422" p-id="2061"></path><path d="M631.84721 128.883119l108.320112-108.320112c27.417342-27.417342 71.868232-27.417342 99.285575 0l163.984096 163.984096c27.417342 27.417342 27.417342 71.868232 0 99.285575L895.116881 392.15279l-263.269671-263.269671z" fill="#EBE5DD" p-id="2062"></path><path d="M644.255987 204.230899l-24.821942 24.819748-35.096041-35.096041 24.819748-24.821942zM696.920891 256.884833l-24.819748 24.819748-35.098235-35.096041 24.821942-24.821942zM749.572631 309.538767l-24.821942 24.819748-35.098235-35.096041 24.821942-24.821942zM802.235341 362.192701l-24.819748 24.821942-35.098235-35.098235 24.821942-24.819748zM854.884888 414.846635l-24.819749 24.819749-35.098235-35.096041 24.821942-24.821943zM556.497236 291.972098l-24.819748 24.821942-35.098235-35.098235 24.821942-24.819748zM609.199437 344.626032l-24.819748 24.819749-35.098235-35.096041 24.821942-24.821942zM661.816074 397.279967l-24.824136 24.819748-35.096041-35.096041 24.821942-24.821942zM714.478784 449.933901l-24.819748 24.821942-35.098235-35.098235 24.821942-24.819748zM767.128331 502.587835l-24.821943 24.821942-35.096041-35.098235 24.821943-24.819748z" fill="#E7B900" p-id="2063"></path><path d="M280.820982 479.909347v526.539342l87.756557-87.756557v-526.539342z" fill="#F40E34" p-id="2064"></path><path d="M193.064425 567.665904v386.12885l70.205246 70.205246 17.551311-17.551311v-526.539342zM0 760.730329l105.307868 105.307868v-210.615736z" fill="#5AAAE7" p-id="2065"></path><path d="M105.307868 655.422461v210.615736l87.756557 87.756557v-386.12885zM456.334096 304.396233v526.539342l87.756557-87.756557v-351.026228z" fill="#F40E34" p-id="2066"></path><path d="M368.577539 392.15279v526.539342l87.756557-87.756557v-526.539342z" fill="#5AAAE7" p-id="2067"></path><path d="M631.84721 479.909347v175.513114l87.756557-87.756557z" fill="#F40E34" p-id="2068"></path><path d="M544.090653 392.15279v351.026228l87.756557-87.756557v-175.513114z" fill="#5AAAE7" p-id="2069"></path><path d="M193.064425 901.14082v-70.205245H122.85918v-87.756557H17.551311l-17.551311 17.551311v140.410491h70.205246l52.653934 52.653934v70.205246h140.410491l17.551311-17.551311v-105.307869z" fill="#FF9811" p-id="2070"></path><path d="M70.205246 901.14082H0v122.85918h122.85918v-70.205246z" fill="#333333" p-id="2071"></path><path d="M789.809013 286.844921l157.961802-157.961802 55.666178 55.666178c27.417342 27.417342 27.417342 71.868232 0 99.285575L895.116881 392.15279l-105.307868-105.307869z" fill="#D4C8B8" p-id="2072"></path><path d="M175.513114 690.525084l228.167048-210.615737 35.102623 35.102623-228.167048 210.615736zM509.031909 444.80453l-35.098235 35.096041-35.096041-35.096041 35.096041-35.098235zM824.916023 93.699321l-35.098235 35.096041-35.096041-35.096041 35.096041-35.098235z" fill="#F2F2F2" p-id="2073"></path></svg>