<?xml version="1.0" standalone="no"?><!DOCTYPE svg PUBLIC "-//W3C//DTD SVG 1.1//EN" "http://www.w3.org/Graphics/SVG/1.1/DTD/svg11.dtd"><svg t="1760688222156" class="icon" viewBox="0 0 1024 1024" version="1.1" xmlns="http://www.w3.org/2000/svg" p-id="1643" width="128" height="128" xmlns:xlink="http://www.w3.org/1999/xlink"><path d="M409.6 657.066667l-170.666667 51.2-34.133333 221.866666H170.666667L136.533333 657.066667l187.733334-204.8c0 101.717333 37.034667 167.253333 84.821333 203.605333l0.512 1.194667z" fill="#F40E34" p-id="1644"></path><path d="M204.8 930.133333l-17.066667-256 153.6-102.4 67.754667 84.138667L238.933333 708.266667z" fill="#A6001E" p-id="1645"></path><path d="M887.466667 657.066667l-34.133334 273.066666h-34.133333l-34.133333-221.866666-170.666667-51.2 0.512-1.194667C662.698667 619.52 699.733333 553.984 699.733333 452.266667l187.733334 204.8z" fill="#F40E34" p-id="1646"></path><path d="M853.333333 930.133333l34.133334-273.066666-187.733334-204.8-17.066666 102.4 153.6 119.466666z" fill="#A6001E" p-id="1647"></path><path d="M699.733333 452.266667c0 101.717333-37.034667 167.253333-84.821333 203.605333-10.752 8.021333-22.186667 14.677333-33.792 19.797333-22.869333 10.581333-46.592 15.530667-69.12 15.530667s-46.250667-4.949333-69.12-15.530667c-11.605333-5.12-23.04-11.776-33.792-19.797333C361.301333 619.52 324.266667 553.984 324.266667 452.266667c0-89.258667 28.501333-202.581333 67.925333-290.133334h239.616C671.232 249.685333 699.733333 363.008 699.733333 452.266667z" fill="#EBE5DD" p-id="1648"></path><path d="M512 332.8m-102.4 0a102.4 102.4 0 1 0 204.8 0 102.4 102.4 0 1 0-204.8 0Z" fill="#5AAAE7" p-id="1649"></path><path d="M614.4 332.8c0 56.490667-45.909333 102.4-102.4 102.4-37.034667 0-69.461333-19.626667-87.381333-49.152 15.530667 9.557333 33.621333 15.018667 53.248 15.018667 56.490667 0 102.4-45.909333 102.4-102.4 0-19.626667-5.461333-37.717333-15.018667-53.248C594.773333 263.338667 614.4 295.765333 614.4 332.8z" fill="#1E81CE" p-id="1650"></path><path d="M512 25.6c-40.200533 0-84.4416 57.749333-119.882667 136.533333h239.767467C596.4416 83.349333 552.200533 25.6 512 25.6z" fill="#F40E34" p-id="1651"></path><path d="M631.808 162.133333h-26.097067C621.5936 220.6336 631.466667 280.7808 631.466667 332.8c0 101.717333-37.034667 167.253333-84.821334 203.605333-10.752 8.021333-22.186667 14.677333-33.792 19.797334-22.869333 10.581333-46.592 15.530667-69.12 15.530666s-46.250667-4.949333-69.12-15.530666c-11.605333-5.12-23.04-11.776-33.792-19.797334-2.779733-2.114133-5.378133-4.672-8.078933-6.984533 13.4848 58.845867 42.011733 100.3328 76.3456 126.4512 10.752 8.021333 22.186667 14.677333 33.792 19.797333 22.869333 10.581333 46.592 15.530667 69.12 15.530667s46.250667-4.949333 69.12-15.530667c11.605333-5.12 23.04-11.776 33.792-19.797333C662.698667 619.52 699.733333 553.984 699.733333 452.266667c0-89.258667-28.501333-202.581333-67.925333-290.133334z" fill="#D4C8B8" p-id="1652"></path><path d="M631.808 162.133333h0.074667c-18.3168-40.714667-38.986667-75.720533-60.2304-100.132266 13.070933 31.4752 24.631467 65.399467 34.058666 100.132266h26.097067z" fill="#A6001E" p-id="1653"></path><path d="M631.466667 759.466667H392.533333l50.346667-83.797334c22.869333 10.581333 46.592 15.530667 69.12 15.530667s46.250667-4.949333 69.12-15.530667L631.466667 759.466667z" fill="#EE8700" p-id="1654"></path><path d="M426.666667 759.466667l-68.266667 85.333333h68.266667l-34.133334 85.333333h85.333334l34.133333 68.266667 34.133333-68.266667h85.333334l-34.133334-85.333333h51.2l-51.2-85.333333z" fill="#FFD422" p-id="1655"></path><path d="M494.933333 759.466667l-17.066666 51.2 34.133333 51.2 34.133333-51.2-17.066666-51.2z" fill="#F40E34" p-id="1656"></path><path d="M446.250667 623.867733c-49.032533-38.333867-79.432533-100.834133-79.3664-163.082666l34.133333 0.034133c-0.066133 51.982933 25.333333 104.149333 66.267733 136.149333l-21.034666 26.8992zM521.224533 632.512l-16.072533 30.114133-29.751467-15.880533 16.072534-30.114133z" fill="#FFFFFF" p-id="1657"></path><path d="M1023.9616 196.266667c-15.573333 20.7232-40.3584 34.133333-68.258133 34.133333h-153.6c-37.717333 0-68.266667-30.549333-68.266667-68.266667s30.549333-68.266667 68.266667-68.266666c0 0 17.066667 0.682667 17.066666 0 0-37.717333 30.549333-68.266667 68.266667-68.266667 25.429333 0 47.616 13.994667 59.392 34.645333 2.901333-0.341333 5.802667-0.512 8.874667-0.512 27.921067 0 52.725333 13.4336 68.296533 34.184534L1023.9616 196.266667z" fill="#5AAAE7" p-id="1658"></path><path d="M1024 171.861333V196.266667c-15.530667 20.650667-40.448 34.133333-68.266667 34.133333h-153.6c-37.717333 0-68.266667-30.549333-68.266666-68.266667 0-25.429333 13.994667-47.616 34.645333-59.392A65.984 65.984 0 0 0 768 110.933333c0 37.717333 30.549333 68.266667 68.266667 68.266667h153.6c12.117333 0 23.722667-2.56 34.133333-7.338667z" fill="#1E81CE" p-id="1659"></path><path d="M0 452.266667h170.666667c37.717333 0 68.266667-30.549333 68.266666-68.266667s-30.549333-68.266667-68.266666-68.266667c0 0-17.066667 0.682667-17.066667 0 0-37.717333-30.549333-68.266667-68.266667-68.266666-25.429333 0-47.616 13.994667-59.392 34.645333L0 281.6v170.666667z" fill="#5AAAE7" p-id="1660"></path><path d="M238.933333 384c0 37.717333-30.549333 68.266667-68.266666 68.266667H0v-68.266667h170.666667c25.258667 0 47.274667-13.653333 59.050666-34.133333 5.802667 10.069333 9.216 21.674667 9.216 34.133333z" fill="#1E81CE" p-id="1661"></path><path d="M477.866667 298.666667m-51.2 0a51.2 51.2 0 1 0 102.4 0 51.2 51.2 0 1 0-102.4 0Z" fill="#9DC7E7" p-id="1662"></path><path d="M587.165867 341.284267l-34.033067-2.766934c0.8-9.783467-2.683733-19.965867-9.316267-27.217066s-16.450133-11.633067-26.267733-11.716267l0.266667-34.133333c19.133867 0.149333 38.267733 8.682667 51.2 22.816a70.4256 70.4256 0 0 1 18.1504 53.0176zM187.733333 725.333333h34.133334v51.2H187.733333zM221.866667 691.2H187.733333v-34.133333a17.066667 17.066667 0 0 1 7.601067-14.199467l102.4-68.266667 18.933333 28.401067L221.866667 666.199467V691.2zM524.074667 88.874667l-34.129067 34.126933-24.136533-24.136533 34.126933-34.126934zM476.100267 152.6272l-51.195734 102.3936-30.528-15.264 51.195734-102.3936z" fill="#FFFFFF" p-id="1663"></path></svg>